<svg width="734" height="315" viewBox="0 0 734 315" fill="none" xmlns="http://www.w3.org/2000/svg">
    <path d="M649.906 175.734C673.062 169.078 689.938 160.922 700.531 151.266C711.031 141.516 716.281 129.516 716.281 115.266C716.281 99.1406 709.859 85.8281 697.016 75.3281C684.078 64.7344 667.297 59.4375 646.672 59.4375C632.609 59.4375 620.094 62.1562 609.125 67.5938C598.062 73.0313 589.531 80.5312 583.531 90.0938C577.438 99.6562 574.391 110.109 574.391 121.453H601.531C601.531 109.078 605.469 99.375 613.344 92.3438C621.219 85.2187 632.328 81.6562 646.672 81.6562C659.984 81.6562 670.391 84.6094 677.891 90.5156C685.297 96.3281 689 104.438 689 114.844C689 123.188 685.484 130.266 678.453 136.078C671.328 141.797 659.281 147.047 642.312 151.828C625.25 156.609 611.938 161.906 602.375 167.719C592.719 173.438 585.594 180.141 581 187.828C576.312 195.516 573.969 204.562 573.969 214.969C573.969 231.562 580.438 244.875 593.375 254.906C606.312 264.844 623.609 269.812 645.266 269.812C659.328 269.812 672.453 267.141 684.641 261.797C696.828 256.359 706.25 248.953 712.906 239.578C719.469 230.203 722.75 219.562 722.75 207.656H695.609C695.609 220.031 691.062 229.828 681.969 237.047C672.781 244.172 660.547 247.734 645.266 247.734C631.016 247.734 620.094 244.828 612.5 239.016C604.906 233.203 601.109 225.281 601.109 215.25C601.109 205.219 604.625 197.484 611.656 192.047C618.688 186.516 631.438 181.078 649.906 175.734Z" fill="black"/>
    <path d="M174.375 202.031C171.844 223.688 163.828 240.422 150.328 252.234C136.922 263.953 119.062 269.812 96.75 269.812C72.5625 269.812 53.1562 261.141 38.5312 243.797C24 226.453 16.7344 203.25 16.7344 174.188V154.5C16.7344 135.469 20.1094 118.734 26.8594 104.297C33.7031 89.8594 43.3594 78.7969 55.8281 71.1094C68.2969 63.3281 82.7344 59.4375 99.1406 59.4375C120.891 59.4375 138.328 65.5312 151.453 77.7188C164.578 89.8125 172.219 106.594 174.375 128.062H147.234C144.891 111.75 139.781 99.9375 131.906 92.625C124.125 85.3125 113.203 81.6562 99.1406 81.6562C81.8906 81.6562 68.3438 88.0312 58.5 100.781C48.75 113.531 43.875 131.672 43.875 155.203V175.031C43.875 197.25 48.5156 214.922 57.7969 228.047C67.0781 241.172 80.0625 247.734 96.75 247.734C111.75 247.734 123.234 244.359 131.203 237.609C139.266 230.766 144.609 218.906 147.234 202.031H174.375Z" fill="black"/>
    <path d="M369.266 171.234C369.266 191.297 365.891 208.828 359.141 223.828C352.391 238.734 342.828 250.125 330.453 258C318.078 265.875 303.641 269.812 287.141 269.812C271.016 269.812 256.719 265.875 244.25 258C231.781 250.031 222.078 238.734 215.141 224.109C208.297 209.391 204.781 192.375 204.594 173.062V158.297C204.594 138.609 208.016 121.219 214.859 106.125C221.703 91.0313 231.359 79.5 243.828 71.5312C256.391 63.4688 270.734 59.4375 286.859 59.4375C303.266 59.4375 317.703 63.4219 330.172 71.3906C342.734 79.2656 352.391 90.75 359.141 105.844C365.891 120.844 369.266 138.328 369.266 158.297V171.234ZM342.406 158.016C342.406 133.734 337.531 115.125 327.781 102.188C318.031 89.1562 304.391 82.6406 286.859 82.6406C269.797 82.6406 256.344 89.1562 246.5 102.188C236.75 115.125 231.734 133.125 231.453 156.188V171.234C231.453 194.766 236.375 213.281 246.219 226.781C256.156 240.188 269.797 246.891 287.141 246.891C304.578 246.891 318.078 240.562 327.641 227.906C337.203 215.156 342.125 196.922 342.406 173.203V158.016Z" fill="black"/>
    <path d="M464.141 184.172H512.234V267H539.375V62.25H471.594C448.531 62.25 430.812 67.5 418.438 78C405.969 88.5 399.734 103.781 399.734 123.844C399.734 136.594 403.203 147.703 410.141 157.172C416.984 166.641 426.547 173.719 438.828 178.406L390.734 265.312V267H419.703L464.141 184.172ZM512.234 162.094H470.75C457.344 162.094 446.703 158.625 438.828 151.688C430.859 144.75 426.875 135.469 426.875 123.844C426.875 111.188 430.672 101.484 438.266 94.7344C445.766 87.9844 456.641 84.5625 470.891 84.4688H512.234V162.094Z" fill="black"/>
</svg>