<svg width="689" height="590" viewBox="0 0 689 590" fill="none" xmlns="http://www.w3.org/2000/svg">
    <path d="M193.75 224.812C190.938 248.875 182.031 267.469 167.031 280.594C152.135 293.615 132.292 300.125 107.5 300.125C80.625 300.125 59.0625 290.49 42.8125 271.219C26.6667 251.948 18.5938 226.167 18.5938 193.875V172C18.5938 150.854 22.3438 132.26 29.8438 116.219C37.4479 100.177 48.1771 87.8854 62.0312 79.3438C75.8854 70.6979 91.9271 66.375 110.156 66.375C134.323 66.375 153.698 73.1458 168.281 86.6875C182.865 100.125 191.354 118.771 193.75 142.625H163.594C160.99 124.5 155.312 111.375 146.562 103.25C137.917 95.125 125.781 91.0625 110.156 91.0625C90.9896 91.0625 75.9375 98.1458 65 112.312C54.1667 126.479 48.75 146.635 48.75 172.781V194.812C48.75 219.5 53.9062 239.135 64.2188 253.719C74.5312 268.302 88.9583 275.594 107.5 275.594C124.167 275.594 136.927 271.844 145.781 264.344C154.74 256.74 160.677 243.562 163.594 224.812H193.75Z" fill="black"/>
    <path d="M378.406 190.594C378.406 212.885 374.656 232.365 367.156 249.031C359.656 265.594 349.031 278.25 335.281 287C321.531 295.75 305.49 300.125 287.156 300.125C269.24 300.125 253.354 295.75 239.5 287C225.646 278.146 214.865 265.594 207.156 249.344C199.552 232.99 195.646 214.083 195.438 192.625V176.219C195.438 154.344 199.24 135.021 206.844 118.25C214.448 101.479 225.177 88.6667 239.031 79.8125C252.99 70.8542 268.927 66.375 286.844 66.375C305.073 66.375 321.115 70.8021 334.969 79.6562C348.927 88.4062 359.656 101.167 367.156 117.938C374.656 134.604 378.406 154.031 378.406 176.219V190.594ZM348.562 175.906C348.562 148.927 343.146 128.25 332.312 113.875C321.479 99.3958 306.323 92.1562 286.844 92.1562C267.885 92.1562 252.938 99.3958 242 113.875C231.167 128.25 225.594 148.25 225.281 173.875V190.594C225.281 216.74 230.75 237.312 241.688 252.312C252.729 267.208 267.885 274.656 287.156 274.656C306.531 274.656 321.531 267.625 332.156 253.562C342.781 239.396 348.25 219.135 348.562 192.781V175.906Z" fill="black"/>
    <path d="M420.156 373.969H473.594V466H503.75V238.5H428.438C402.812 238.5 383.125 244.333 369.375 256C355.521 267.667 348.594 284.646 348.594 306.938C348.594 321.104 352.448 333.448 360.156 343.969C367.76 354.49 378.385 362.354 392.031 367.562L338.594 464.125V466H370.781L420.156 373.969ZM473.594 349.438H427.5C412.604 349.438 400.781 345.583 392.031 337.875C383.177 330.167 378.75 319.854 378.75 306.938C378.75 292.875 382.969 282.094 391.406 274.594C399.74 267.094 411.823 263.292 427.656 263.188H473.594V349.438Z" fill="black"/>
    <path d="M595.562 364.594C621.292 357.198 640.042 348.135 651.812 337.406C663.479 326.573 669.312 313.24 669.312 297.406C669.312 279.49 662.177 264.698 647.906 253.031C633.531 241.26 614.885 235.375 591.969 235.375C576.344 235.375 562.438 238.396 550.25 244.438C537.958 250.479 528.479 258.812 521.812 269.438C515.042 280.062 511.656 291.677 511.656 304.281H541.812C541.812 290.531 546.188 279.75 554.938 271.938C563.688 264.021 576.031 260.062 591.969 260.062C606.76 260.062 618.323 263.344 626.656 269.906C634.885 276.365 639 285.375 639 296.938C639 306.208 635.094 314.073 627.281 320.531C619.365 326.885 605.979 332.719 587.125 338.031C568.167 343.344 553.375 349.229 542.75 355.688C532.021 362.042 524.104 369.49 519 378.031C513.792 386.573 511.188 396.625 511.188 408.188C511.188 426.625 518.375 441.417 532.75 452.562C547.125 463.604 566.344 469.125 590.406 469.125C606.031 469.125 620.615 466.156 634.156 460.219C647.698 454.177 658.167 445.948 665.562 435.531C672.854 425.115 676.5 413.292 676.5 400.062H646.344C646.344 413.812 641.292 424.698 631.188 432.719C620.979 440.635 607.385 444.594 590.406 444.594C574.573 444.594 562.438 441.365 554 434.906C545.562 428.448 541.344 419.646 541.344 408.5C541.344 397.354 545.25 388.76 553.062 382.719C560.875 376.573 575.042 370.531 595.562 364.594Z" fill="black"/>
</svg>