<svg width="372" height="169" viewBox="0 0 372 169" fill="none" xmlns="http://www.w3.org/2000/svg">
    <path d="M87.1875 101.516C85.9219 112.344 81.9141 120.711 75.1641 126.617C68.4609 132.477 59.5312 135.406 48.375 135.406C36.2812 135.406 26.5781 131.07 19.2656 122.398C12 113.727 8.36719 102.125 8.36719 87.5938V77.75C8.36719 68.2344 10.0547 59.8672 13.4297 52.6484C16.8516 45.4297 21.6797 39.8984 27.9141 36.0547C34.1484 32.1641 41.3672 30.2188 49.5703 30.2188C60.4453 30.2188 69.1641 33.2656 75.7266 39.3594C82.2891 45.4062 86.1094 53.7969 87.1875 64.5312H73.6172C72.4453 56.375 69.8906 50.4688 65.9531 46.8125C62.0625 43.1562 56.6016 41.3281 49.5703 41.3281C40.9453 41.3281 34.1719 44.5156 29.25 50.8906C24.375 57.2656 21.9375 66.3359 21.9375 78.1016V88.0156C21.9375 99.125 24.2578 107.961 28.8984 114.523C33.5391 121.086 40.0312 124.367 48.375 124.367C55.875 124.367 61.6172 122.68 65.6016 119.305C69.6328 115.883 72.3047 109.953 73.6172 101.516H87.1875Z" fill="black"/>
    <path d="M172.633 86.1172C172.633 96.1484 170.945 104.914 167.57 112.414C164.195 119.867 159.414 125.562 153.227 129.5C147.039 133.438 139.82 135.406 131.57 135.406C123.508 135.406 116.359 133.438 110.125 129.5C103.891 125.516 99.0391 119.867 95.5703 112.555C92.1484 105.195 90.3906 96.6875 90.2969 87.0312V79.6484C90.2969 69.8047 92.0078 61.1094 95.4297 53.5625C98.8516 46.0156 103.68 40.25 109.914 36.2656C116.195 32.2344 123.367 30.2188 131.43 30.2188C139.633 30.2188 146.852 32.2109 153.086 36.1953C159.367 40.1328 164.195 45.875 167.57 53.4219C170.945 60.9219 172.633 69.6641 172.633 79.6484V86.1172ZM159.203 79.5078C159.203 67.3672 156.766 58.0625 151.891 51.5938C147.016 45.0781 140.195 41.8203 131.43 41.8203C122.898 41.8203 116.172 45.0781 111.25 51.5938C106.375 58.0625 103.867 67.0625 103.727 78.5938V86.1172C103.727 97.8828 106.188 107.141 111.109 113.891C116.078 120.594 122.898 123.945 131.57 123.945C140.289 123.945 147.039 120.781 151.82 114.453C156.602 108.078 159.062 98.9609 159.203 87.1016V79.5078Z" fill="black"/>
    <rect x="182" y="18" width="190" height="131" rx="25" fill="black"/>
    <path d="M320.953 88.3672C332.531 85.0391 340.969 80.9609 346.266 76.1328C351.516 71.2578 354.141 65.2578 354.141 58.1328C354.141 50.0703 350.93 43.4141 344.508 38.1641C338.039 32.8672 329.648 30.2188 319.336 30.2188C312.305 30.2188 306.047 31.5781 300.562 34.2969C295.031 37.0156 290.766 40.7656 287.766 45.5469C284.719 50.3281 283.195 55.5547 283.195 61.2266H296.766C296.766 55.0391 298.734 50.1875 302.672 46.6719C306.609 43.1094 312.164 41.3281 319.336 41.3281C325.992 41.3281 331.195 42.8047 334.945 45.7578C338.648 48.6641 340.5 52.7188 340.5 57.9219C340.5 62.0938 338.742 65.6328 335.227 68.5391C331.664 71.3984 325.641 74.0234 317.156 76.4141C308.625 78.8047 301.969 81.4531 297.188 84.3594C292.359 87.2188 288.797 90.5703 286.5 94.4141C284.156 98.2578 282.984 102.781 282.984 107.984C282.984 116.281 286.219 122.938 292.688 127.953C299.156 132.922 307.805 135.406 318.633 135.406C325.664 135.406 332.227 134.07 338.32 131.398C344.414 128.68 349.125 124.977 352.453 120.289C355.734 115.602 357.375 110.281 357.375 104.328H343.805C343.805 110.516 341.531 115.414 336.984 119.023C332.391 122.586 326.273 124.367 318.633 124.367C311.508 124.367 306.047 122.914 302.25 120.008C298.453 117.102 296.555 113.141 296.555 108.125C296.555 103.109 298.312 99.2422 301.828 96.5234C305.344 93.7578 311.719 91.0391 320.953 88.3672Z" fill="white"/>
    <path d="M231.57 92.5859H255.617V134H269.188V31.625H235.297C223.766 31.625 214.906 34.25 208.719 39.5C202.484 44.75 199.367 52.3906 199.367 62.4219C199.367 68.7969 201.102 74.3516 204.57 79.0859C207.992 83.8203 212.773 87.3594 218.914 89.7031L194.867 133.156V134H209.352L231.57 92.5859ZM255.617 81.5469H234.875C228.172 81.5469 222.852 79.8125 218.914 76.3438C214.93 72.875 212.938 68.2344 212.938 62.4219C212.938 56.0938 214.836 51.2422 218.633 47.8672C222.383 44.4922 227.82 42.7813 234.945 42.7344H255.617V81.5469Z" fill="white"/>
</svg>