<svg width="460" height="460" viewBox="0 0 460 460" fill="none" xmlns="http://www.w3.org/2000/svg">
    <rect width="460" height="460" fill="white"/>
    <path d="M131.188 246.516C129.922 257.344 125.914 265.711 119.164 271.617C112.461 277.477 103.531 280.406 92.375 280.406C80.2812 280.406 70.5781 276.07 63.2656 267.398C56 258.727 52.3672 247.125 52.3672 232.594V222.75C52.3672 213.234 54.0547 204.867 57.4297 197.648C60.8516 190.43 65.6797 184.898 71.9141 181.055C78.1484 177.164 85.3672 175.219 93.5703 175.219C104.445 175.219 113.164 178.266 119.727 184.359C126.289 190.406 130.109 198.797 131.188 209.531H117.617C116.445 201.375 113.891 195.469 109.953 191.812C106.062 188.156 100.602 186.328 93.5703 186.328C84.9453 186.328 78.1719 189.516 73.25 195.891C68.375 202.266 65.9375 211.336 65.9375 223.102V233.016C65.9375 244.125 68.2578 252.961 72.8984 259.523C77.5391 266.086 84.0312 269.367 92.375 269.367C99.875 269.367 105.617 267.68 109.602 264.305C113.633 260.883 116.305 254.953 117.617 246.516H131.188Z" fill="black"/>
    <path d="M216.633 231.117C216.633 241.148 214.945 249.914 211.57 257.414C208.195 264.867 203.414 270.562 197.227 274.5C191.039 278.438 183.82 280.406 175.57 280.406C167.508 280.406 160.359 278.438 154.125 274.5C147.891 270.516 143.039 264.867 139.57 257.555C136.148 250.195 134.391 241.688 134.297 232.031V224.648C134.297 214.805 136.008 206.109 139.43 198.562C142.852 191.016 147.68 185.25 153.914 181.266C160.195 177.234 167.367 175.219 175.43 175.219C183.633 175.219 190.852 177.211 197.086 181.195C203.367 185.133 208.195 190.875 211.57 198.422C214.945 205.922 216.633 214.664 216.633 224.648V231.117ZM203.203 224.508C203.203 212.367 200.766 203.062 195.891 196.594C191.016 190.078 184.195 186.82 175.43 186.82C166.898 186.82 160.172 190.078 155.25 196.594C150.375 203.062 147.867 212.062 147.727 223.594V231.117C147.727 242.883 150.188 252.141 155.109 258.891C160.078 265.594 166.898 268.945 175.57 268.945C184.289 268.945 191.039 265.781 195.82 259.453C200.602 253.078 203.062 243.961 203.203 232.102V224.508Z" fill="black"/>
    <rect x="226" y="163" width="190" height="131" rx="25" fill="black"/>
    <path d="M364.953 233.367C376.531 230.039 384.969 225.961 390.266 221.133C395.516 216.258 398.141 210.258 398.141 203.133C398.141 195.07 394.93 188.414 388.508 183.164C382.039 177.867 373.648 175.219 363.336 175.219C356.305 175.219 350.047 176.578 344.562 179.297C339.031 182.016 334.766 185.766 331.766 190.547C328.719 195.328 327.195 200.555 327.195 206.227H340.766C340.766 200.039 342.734 195.188 346.672 191.672C350.609 188.109 356.164 186.328 363.336 186.328C369.992 186.328 375.195 187.805 378.945 190.758C382.648 193.664 384.5 197.719 384.5 202.922C384.5 207.094 382.742 210.633 379.227 213.539C375.664 216.398 369.641 219.023 361.156 221.414C352.625 223.805 345.969 226.453 341.188 229.359C336.359 232.219 332.797 235.57 330.5 239.414C328.156 243.258 326.984 247.781 326.984 252.984C326.984 261.281 330.219 267.938 336.688 272.953C343.156 277.922 351.805 280.406 362.633 280.406C369.664 280.406 376.227 279.07 382.32 276.398C388.414 273.68 393.125 269.977 396.453 265.289C399.734 260.602 401.375 255.281 401.375 249.328H387.805C387.805 255.516 385.531 260.414 380.984 264.023C376.391 267.586 370.273 269.367 362.633 269.367C355.508 269.367 350.047 267.914 346.25 265.008C342.453 262.102 340.555 258.141 340.555 253.125C340.555 248.109 342.312 244.242 345.828 241.523C349.344 238.758 355.719 236.039 364.953 233.367Z" fill="white"/>
    <path d="M275.57 237.586H299.617V279H313.188V176.625H279.297C267.766 176.625 258.906 179.25 252.719 184.5C246.484 189.75 243.367 197.391 243.367 207.422C243.367 213.797 245.102 219.352 248.57 224.086C251.992 228.82 256.773 232.359 262.914 234.703L238.867 278.156V279H253.352L275.57 237.586ZM299.617 226.547H278.875C272.172 226.547 266.852 224.812 262.914 221.344C258.93 217.875 256.938 213.234 256.938 207.422C256.938 201.094 258.836 196.242 262.633 192.867C266.383 189.492 271.82 187.781 278.945 187.734H299.617V226.547Z" fill="white"/>
</svg>